<svg width="88" height="84" viewBox="0 0 88 84" fill="none" xmlns="http://www.w3.org/2000/svg">
<circle cx="46" cy="42" r="42" fill="#2563EB"/>
<g clip-path="url(#clip0_15_58)">
<path d="M70.4531 17.3747C70.7096 17.5937 70.8884 17.8897 70.9627 18.2186C71.0371 18.5476 71.003 18.8917 70.8656 19.1997C66.0844 29.9185 56.0438 44.731 48.6938 52.4497C46.6311 54.606 44.0911 56.248 41.2781 57.2435C41.2219 57.9528 41.0906 58.9247 40.7781 59.956C40.15 62.0153 38.6937 64.5778 35.4406 65.3935C32.2903 66.1451 29.025 66.2851 25.8219 65.806C25.2271 65.7079 24.6401 65.5669 24.0656 65.3841C23.5357 65.2214 23.0415 64.9594 22.6094 64.6122C22.3235 64.3716 22.104 64.0617 21.9719 63.7122C21.8054 63.265 21.8099 62.772 21.9844 62.3278C22.2812 61.5622 22.9719 61.1403 23.425 60.9153C24.6562 60.2997 25.3781 59.4997 26.1344 58.3341C26.4312 57.8841 26.7094 57.406 27.0312 56.8591L27.3969 56.2403C27.8687 55.4435 28.4156 54.5528 29.1031 53.5903C30.7531 51.281 32.8562 50.6997 34.5594 50.7903C34.9552 50.8153 35.3177 50.8653 35.6469 50.9403C35.8406 50.4028 36.0906 49.7528 36.3906 49.0403C37.2062 47.106 38.4469 44.606 40.1 42.5747C46.9 34.231 59.4125 23.181 68.5906 17.2497C68.8732 17.0673 69.207 16.981 69.5426 17.0035C69.8781 17.026 70.1975 17.1562 70.4531 17.3747Z" fill="white"/>
</g>
<defs>
<clipPath id="clip0_15_58">
<rect width="50" height="50" fill="white" transform="translate(21 17)"/>
</clipPath>
</defs>
</svg>
