<svg width="88" height="84" viewBox="0 0 88 84" fill="none" xmlns="http://www.w3.org/2000/svg">
<circle cx="46" cy="42" r="42" fill="#2563EB"/>
<path d="M65.7583 34.8439L46.9625 24.4273C46.6538 24.2565 46.3069 24.167 45.9542 24.167C45.6014 24.167 45.2545 24.2565 44.9458 24.4273L26.2417 34.7606C25.9167 34.9405 25.6458 35.204 25.457 35.5239C25.2681 35.8437 25.1682 36.2082 25.1676 36.5796C25.1669 36.951 25.2656 37.3158 25.4533 37.6363C25.6411 37.9568 25.9111 38.2212 26.2354 38.4023L45.0312 48.9023C45.341 49.0752 45.6898 49.1661 46.0445 49.1665C46.3993 49.1668 46.7482 49.0766 47.0583 48.9043L65.7625 38.4877C66.0874 38.307 66.3581 38.0426 66.5463 37.7221C66.7346 37.4015 66.8337 37.0364 66.8333 36.6646C66.8329 36.2928 66.7329 35.9279 66.5439 35.6078C66.3549 35.2876 66.0837 35.0239 65.7583 34.8439Z" fill="white"/>
<path d="M46 53.0329L28.2604 43.1787L26.2375 46.8204L44.9875 57.237C45.2969 57.4089 45.645 57.4991 45.999 57.4991C46.3529 57.4991 46.701 57.4089 47.0104 57.237L65.7604 46.8204L63.7375 43.1787L46 53.0329Z" fill="white"/>
<path d="M46 61.3669L28.2604 51.5127L26.2375 55.1544L44.9875 65.571C45.2969 65.7429 45.645 65.833 45.999 65.833C46.3529 65.833 46.701 65.7429 47.0104 65.571L65.7604 55.1544L63.7375 51.5127L46 61.3669Z" fill="white"/>
</svg>
